<svg id="Icone_Calendário_-_Branco" data-name="Icone Calendário - Branco" xmlns="http://www.w3.org/2000/svg" width="21.262" height="21.262" viewBox="0 0 21.262 21.262">
  <path id="Caminho_200" data-name="Caminho 200" d="M-.01,16.9V6.063a.42.42,0,0,0,.037-.1A4.752,4.752,0,0,1,1.593,3.032,4.669,4.669,0,0,1,4.61,1.786c.226-.01.453,0,.7,0,0-.176,0-.314,0-.451A1.192,1.192,0,0,1,5.771.319,3.554,3.554,0,0,1,6.386,0h.5a.313.313,0,0,0,.069.039A1.271,1.271,0,0,1,7.94,1.093a4.414,4.414,0,0,1,.035.666h5.3c0-.15,0-.288,0-.425A1.273,1.273,0,0,1,13.945.172,2.677,2.677,0,0,1,14.359,0h.5a.32.32,0,0,0,.069.039,1.27,1.27,0,0,1,.986,1.051,4.918,4.918,0,0,1,.038.7,8.5,8.5,0,0,1,.993.005A4.887,4.887,0,0,1,21.07,5.344c.081.289.122.59.181.885V16.9c-.016.079-.033.159-.049.238a4.886,4.886,0,0,1-3.63,3.986c-.208.063-.426.092-.64.136H4.309a.491.491,0,0,0-.095-.037A4.793,4.793,0,0,1,.222,17.882,8.876,8.876,0,0,1-.01,16.9ZM2.648,7.983v.151q0,4.109,0,8.219a2.259,2.259,0,0,0,.064.533A2.185,2.185,0,0,0,4.954,18.6q5.666,0,11.332,0a2.674,2.674,0,0,0,.773-.113,2.2,2.2,0,0,0,1.534-2.2q0-4.047,0-8.094V7.983Z" transform="translate(0.01)" fill="#fff"/>
  <path id="Caminho_201" data-name="Caminho 201" d="M153.526,301.326c-1.024,0-2.048.005-3.073,0a1.331,1.331,0,0,1-.177-2.653c.1-.008.194-.014.29-.014q2.969,0,5.938,0a1.337,1.337,0,1,1,.095,2.667c-1.024.007-2.049,0-3.073,0Z" transform="translate(-142.901 -286.255)" fill="#fff"/>
</svg>
