<svg xmlns="http://www.w3.org/2000/svg" width="18.004" height="18" viewBox="0 0 18.004 18">
  <path id="Icone_Chapéu_Cozinheiro" data-name="Icone Chapéu Cozinheiro" d="M13.875.75a4.082,4.082,0,0,0-1.836.436,4.485,4.485,0,0,0-6.076,0A4.082,4.082,0,0,0,4.125.75,4.125,4.125,0,0,0,3,8.845V18H15V8.845A4.125,4.125,0,0,0,13.875.75Zm0,6H12.75V13.5H5.25V6.751H4.125A1.875,1.875,0,1,1,5.4,3.509l.983.917.727-1.133a2.237,2.237,0,0,1,3.782,0l.727,1.133.986-.917a1.875,1.875,0,1,1,1.271,3.242Z" transform="translate(0.002 -0.001)" fill="#00da84"/>
</svg>
