<svg xmlns="http://www.w3.org/2000/svg" width="25.245" height="19.07" viewBox="0 0 25.245 19.07">
  <path id="Icone_Pimenta" data-name="Icone Pimenta" d="M22.727,67.181a6.866,6.866,0,0,0,1.254-3.916l-1.4,0a5.176,5.176,0,0,1-1.017,3.114,5.915,5.915,0,0,0-4.516-.155c-3.144,1.19-4.377,6.354-7.98,7.5-2.73.866-5.724.119-7.4.344-4.156.559-.313,7.266,8.862,7.266C22.933,81.334,26.126,70.486,22.727,67.181ZM1.682,76.415a1.14,1.14,0,0,1-.241-.808c.075-.294,2.246-.132,2.371-.124,6.128.359,7.715-.761,10.736-4.92a19.861,19.861,0,0,1,1.574-1.991,5.942,5.942,0,0,1,.456,2,10.625,10.625,0,0,1,2.626-.278,9.984,9.984,0,0,1,.317,2.685,7.884,7.884,0,0,1,2.833-.629C20.325,81.461,5.061,81.732,1.682,76.415Zm20.873-5.462a6.452,6.452,0,0,0-1.747.158,9.782,9.782,0,0,0-.4-1.683c-.161-.457-.031-.341-.5-.45a6.937,6.937,0,0,0-2.17-.027,9.565,9.565,0,0,0-.473-1.286C18.752,66.892,22.842,66.841,22.556,70.953Z" transform="translate(0.502 -62.764)" fill="#00da84" stroke="#00da84" stroke-width="1"/>
</svg>
