<svg xmlns="http://www.w3.org/2000/svg" width="35.066" height="27.464" viewBox="0 0 35.066 27.464">
  <g id="fried-egg_3196985" transform="translate(0.319 -10.109)">
    <path id="Caminho_12174" data-name="Caminho 12174" d="M20.572,10.609c-3.659,0-7.162,1.794-8.147,4.175l-.039.12c0,.007-.189.729-.732.729a1.26,1.26,0,0,1-.4-.079l-.147-.036a11.562,11.562,0,0,0-1.542-.1c-1.862,0-4.315.4-5.432,2.306-1.408,2.4-1.173,5.593-1.084,6.8.01.14.019.243.02.281a14.961,14.961,0,0,1-1.71,3.342c-1.168,1.911-1.45,4.874.1,6.523a5.3,5.3,0,0,0,3.94,1.441,8.639,8.639,0,0,0,3-.545c.218-.081.434-.164.647-.245a10.083,10.083,0,0,1,3.47-.913,3.74,3.74,0,0,1,1.251.21c.228.08.524.193.877.329,1.934.743,5.535,2.129,8.9,2.129a8.321,8.321,0,0,0,4.369-1.08,13.116,13.116,0,0,0,6.069-8.078c.767-3.5-.168-7.236-2.782-11.1-3.65-5.4-8.227-6.207-10.629-6.207ZM32.427,27.573a11.514,11.514,0,0,1-5.338,7.056,6.766,6.766,0,0,1-3.544.851c-3.072,0-6.492-1.317-8.33-2.023-.373-.145-.686-.264-.926-.347a5.321,5.321,0,0,0-1.775-.3,11.363,11.363,0,0,0-4.04,1.019l-.635.242a7.134,7.134,0,0,1-2.444.443,3.819,3.819,0,0,1-2.778-.937c-.982-1.047-.742-3.225.1-4.6C4,26.867,4.658,25.47,4.658,24.823c0-.08-.01-.223-.024-.418-.079-1.066-.288-3.9.87-5.871.774-1.321,2.874-1.518,4.057-1.518a10.565,10.565,0,0,1,1.245.071,2.785,2.785,0,0,0,.848.14,2.445,2.445,0,0,0,2.263-1.88c.671-1.521,3.381-3.144,6.655-3.144,3.6,0,6.91,1.954,9.31,5.5,2.361,3.488,3.216,6.806,2.546,9.865Z" transform="translate(0)" fill="#474763" stroke="#464663" stroke-width="1"/>
    <path id="Caminho_12175" data-name="Caminho 12175" d="M42.029,30.882a6.881,6.881,0,1,0,6.882,6.882,6.889,6.889,0,0,0-6.882-6.882Zm0,12.167a5.286,5.286,0,1,1,5.288-5.285A5.292,5.292,0,0,1,42.029,43.049Z" transform="translate(-21.742 -12.679)" fill="#474763" stroke="#464663" stroke-width="1"/>
    <path id="Caminho_12176" data-name="Caminho 12176" d="M54.533,42.4a.8.8,0,0,0,.436-1.04,4.82,4.82,0,0,0-3.322-2.851.8.8,0,1,0-.373,1.55,3.222,3.222,0,0,1,2.22,1.906.795.795,0,0,0,1.039.436Z" transform="translate(-31.445 -17.434)" fill="#474763" stroke="#464663" stroke-width="1"/>
  </g>
</svg>
