<svg xmlns="http://www.w3.org/2000/svg" width="15.829" height="15.806" viewBox="0 0 15.829 15.806">
  <path id="Icone_Caneta_Escuro" data-name="Icone Caneta Escuro" d="M15.055.789a2.71,2.71,0,0,0-3.744,0L1.063,11.037A3.6,3.6,0,0,0,0,13.6v1.253a.989.989,0,0,0,.989.989H2.243a3.6,3.6,0,0,0,2.565-1.063L15.055,4.533a2.65,2.65,0,0,0,0-3.744ZM3.408,13.382a1.662,1.662,0,0,1-1.165.483H1.979V13.6a1.662,1.662,0,0,1,.483-1.166l7.63-7.628.945.945ZM13.654,3.134l-1.218,1.22-.946-.946,1.22-1.218a.684.684,0,0,1,.945,0,.67.67,0,0,1,0,.944Z" transform="translate(0 -0.038)" fill="#474763"/>
</svg>
