<svg xmlns="http://www.w3.org/2000/svg" width="25.884" height="25.884" viewBox="0 0 25.884 25.884">
  <path id="brain_2068695" d="M25.884,9.909a4.81,4.81,0,0,0-4.108-4.753q.013-.176.013-.353a4.8,4.8,0,0,0-8.847-2.588A4.8,4.8,0,0,0,4.095,4.8q0,.177.013.353A4.8,4.8,0,0,0,1.08,12.942a4.8,4.8,0,0,0,3.027,7.786q-.013.176-.013.353a4.8,4.8,0,0,0,8.847,2.588,4.8,4.8,0,0,0,8.847-2.588q0-.177-.013-.353A4.8,4.8,0,0,0,24.8,12.942,4.8,4.8,0,0,0,25.884,9.909ZM8.9,24.367A3.282,3.282,0,0,1,5.634,20.7,4.79,4.79,0,0,0,8.2,19.371.758.758,0,0,0,7.126,18.3a3.277,3.277,0,0,1-2.161.958h0c-.058,0-.11,0-.158,0a3.285,3.285,0,0,1-2.172-5.751.758.758,0,0,0,0-1.137A3.285,3.285,0,0,1,4.8,6.623c.048,0,.1,0,.158,0h0a3.277,3.277,0,0,1,2.163.958A.758.758,0,0,0,8.2,6.513,4.789,4.789,0,0,0,5.634,5.179a3.286,3.286,0,1,1,6.55-.376V21.081A3.29,3.29,0,0,1,8.9,24.367ZM23.253,13.511a3.285,3.285,0,0,1-2.172,5.751c-.048,0-.1,0-.158,0a.758.758,0,0,0-.767.957,3.286,3.286,0,1,1-6.456.867V18.756h1.647a2.275,2.275,0,1,0,0-1.517H13.7V13.7h3.669a2.275,2.275,0,1,0,0-1.517H13.7V8.645h1.647a2.275,2.275,0,1,0,0-1.517H13.7V4.8a3.286,3.286,0,1,1,6.456.867.758.758,0,0,0,.767.957c.058,0,.11,0,.158,0a3.285,3.285,0,0,1,2.172,5.751.758.758,0,0,0,0,1.137ZM16.733,18a.758.758,0,1,1,.758.758A.759.759,0,0,1,16.733,18Zm2.022-5.055a.758.758,0,1,1,.758.758A.759.759,0,0,1,18.756,12.942ZM16.733,7.886a.758.758,0,1,1,.758.758A.759.759,0,0,1,16.733,7.886Z" fill="#fff"/>
</svg>
