<svg xmlns="http://www.w3.org/2000/svg" width="16.775" height="18.022" viewBox="0 0 16.775 18.022">
  <g id="Icone_Diário_-_OFF" data-name="Icone Diário - OFF" transform="translate(-47.5 -804)">
    <path id="Icon-Diario-OFF" d="M13.581,0H5.194A4.162,4.162,0,0,0,1,4.13V14.871a3.425,3.425,0,0,0,3.431,3.152h9.15a4.167,4.167,0,0,0,4.194-4.13V4.13A4.167,4.167,0,0,0,13.581,0ZM3.287,4.13A1.892,1.892,0,0,1,5.194,2.253h.381v9.011H4.431a3.435,3.435,0,0,0-1.144.207Zm12.2,9.762a1.9,1.9,0,0,1-1.906,1.877H4.431a1.126,1.126,0,1,1,0-2.253H15.487Zm0-2.628H7.862V2.253H10.15V7.771a.5.5,0,0,0,.891.3l1.015-1.309,1.015,1.309a.5.5,0,0,0,.891-.3V2.291A1.887,1.887,0,0,1,15.487,4.13Z" transform="translate(46.5 804)" fill="#00da84"/>
  </g>
</svg>
