<svg xmlns="http://www.w3.org/2000/svg" width="35.553" height="17.581" viewBox="0 0 35.553 17.581">
  <path id="pão" d="M35.448,10.54h0A8.23,8.23,0,0,0,27.261,1h-.276L22.5,1H20.111L15.626,1H9.284c-.17,0-.336.012-.5.024l-.066.005h0A8.311,8.311,0,0,0,5.018,2.2,8.283,8.283,0,0,0,9.29,17.581l17.978-.005a8.273,8.273,0,0,0,8.179-7.035ZM23.038,2.918h0c0-.188.01-.435.024-.718h3.221c0,.007,0,.013,0,.02a6.953,6.953,0,0,0-.089.951,12.2,12.2,0,0,0,.21,1.7c.064.379.123.74.147,1a1.46,1.46,0,0,1-.757,1.358,1.762,1.762,0,0,1-.911.256,1.826,1.826,0,0,1-1.673-1.749,21.082,21.082,0,0,1-.173-2.565C23.036,3.1,23.037,3.019,23.038,2.918Zm-6.874.046c0-.029,0-.061,0-.093,0-.072,0-.152.006-.238,0-.027,0-.052,0-.08,0-.107.009-.226.016-.35h3.221c-.013.089-.025.176-.036.263,0,0,0,0,0,0-.009.075-.018.149-.025.221,0,.017,0,.035-.005.051-.006.059-.01.116-.014.171,0,.02,0,.04,0,.059,0,.071-.006.138-.006.2a12.18,12.18,0,0,0,.208,1.694c.066.39.127.758.15,1.006a1.462,1.462,0,0,1-.758,1.359,1.765,1.765,0,0,1-.911.256,1.826,1.826,0,0,1-1.672-1.75,21.084,21.084,0,0,1-.172-2.565C16.163,3.117,16.164,3.042,16.165,2.964ZM10.086,7.058a2.324,2.324,0,0,1-.625-1.319,21.2,21.2,0,0,1-.172-2.566c0-.135,0-.28.006-.427,0-.042,0-.086,0-.129,0-.1.007-.206.012-.31,0-.034,0-.068,0-.1l3.221,0c0,.034-.009.066-.014.1s-.011.077-.016.115-.01.078-.014.117-.01.085-.015.127l-.01.1c0,.048-.008.094-.011.14,0,.026,0,.051,0,.076,0,.069-.007.136-.007.2a11.974,11.974,0,0,0,.21,1.7c.064.386.124.752.147,1a1.46,1.46,0,0,1-.757,1.358,1.769,1.769,0,0,1-.911.255,1.514,1.514,0,0,1-.179-.01A1.465,1.465,0,0,1,10.086,7.058Zm17.181,9.319-17.979,0A7.085,7.085,0,0,1,8.112,2.31c0,.024,0,.048,0,.072,0,.047,0,.093,0,.14,0,.091-.007.181-.008.269,0,.132,0,.261,0,.385a22.119,22.119,0,0,0,.184,2.732,2.993,2.993,0,0,0,2.861,2.779,2.964,2.964,0,0,0,1.526-.426A2.652,2.652,0,0,0,14,5.768c-.026-.293-.09-.68-.159-1.089a11.744,11.744,0,0,1-.193-1.506c0-.053,0-.114.008-.179,0-.018,0-.038,0-.057,0-.057.01-.116.017-.179,0-.01,0-.02,0-.03.019-.163.044-.342.072-.521a.012.012,0,0,1,0,0h1.24c0,.019,0,.038,0,.056,0,.1-.009.2-.011.3,0,.067-.005.134-.006.2,0,.142,0,.281,0,.412A21.984,21.984,0,0,0,15.149,5.9a2.88,2.88,0,0,0,4.389,2.352,2.81,2.81,0,0,0,1.039-1.079,2.514,2.514,0,0,0,.292-1.411c-.026-.3-.09-.686-.159-1.1a11.686,11.686,0,0,1-.193-1.5c0-.054,0-.117.008-.184,0-.014,0-.03,0-.044.005-.057.011-.117.018-.181,0-.014,0-.028,0-.042.009-.076.019-.155.03-.236,0-.019.006-.039.009-.058.008-.061.018-.122.027-.184,0-.013,0-.027.006-.04h1.238c0,.052,0,.1-.005.154s0,.08,0,.12c0,.095-.007.189-.009.281,0,.142-.006.281-.006.413A22.121,22.121,0,0,0,22.022,5.9,2.882,2.882,0,0,0,26.41,8.256a2.646,2.646,0,0,0,1.332-2.49c-.026-.293-.09-.68-.158-1.089a11.826,11.826,0,0,1-.194-1.508c0-.056,0-.121.008-.19,0-.008,0-.017,0-.026.017-.216.053-.482.095-.75a7.1,7.1,0,0,1,6.858,7.083,6.69,6.69,0,0,1-.077.988,7.107,7.107,0,0,1-2.765,3.054h0a7.056,7.056,0,0,1-3.631,1.006h-.007l-8.988,0a.6.6,0,0,0-.6.6.616.616,0,0,0,.086.308.6.6,0,0,0,.515.293l8.988,0a8.265,8.265,0,0,0,4.255-1.178c.079-.048.16-.1.239-.149A7.194,7.194,0,0,1,27.267,16.377Z" transform="translate(-0.5 -0.5)" fill="#474763" stroke="#474763" stroke-linecap="round" stroke-linejoin="round" stroke-width="1"/>
</svg>
