<svg xmlns="http://www.w3.org/2000/svg" width="18.69" height="18.699" viewBox="0 0 18.69 18.699">
  <path id="Icone_Escala_Escuro" data-name="Icone Escala Escuro" d="M14.407,1.555H12.83A4.608,4.608,0,0,0,8.422.087a4.487,4.487,0,0,0-2.5,1.468H3.894A3.966,3.966,0,0,0,0,5.838V14.4a4.289,4.289,0,0,0,4.283,4.283H14.407A4.289,4.289,0,0,0,18.69,14.4V5.838a4.289,4.289,0,0,0-4.283-4.283ZM16.354,14.4a1.947,1.947,0,0,1-1.947,1.947H4.283A1.947,1.947,0,0,1,2.336,14.4V5.838c0-.325.078-1.947,1.558-1.947h.884a5.054,5.054,0,0,0-.1.945A2.168,2.168,0,0,0,6.785,7L8.76,3.633a1.169,1.169,0,1,1,1.947,1.3L9.591,7.006h2.268A2.1,2.1,0,0,0,14.028,4.67c0,.012-.029-.516-.072-.779h.451a1.947,1.947,0,0,1,1.947,1.947Z" transform="translate(0 0.011)" fill="#474763"/>
</svg>
